<svg aria-hidden="true" style="position: absolute; width: 0; height: 0; overflow: hidden;" version="1.1" xmlns="http://www.w3.org/2000/svg" xmlns:xlink="http://www.w3.org/1999/xlink">
<defs>
<symbol id="icon-Hello-Evano-" viewBox="0 0 206 32">
<path d="M16.735 7.49v19.769h-3.243v-8.647h-9.301v8.647h-3.243v-19.769h3.243v8.476h9.301v-8.476h3.243zM35.368 19.039c0 0.588-0.038 1.119-0.114 1.593h-11.975c0.095 1.252 0.559 2.257 1.394 3.015s1.858 1.138 3.072 1.138c1.745 0 2.977-0.73 3.698-2.19h3.499c-0.474 1.441-1.337 2.626-2.588 3.556-1.233 0.91-2.769 1.365-4.608 1.365-1.498 0-2.844-0.332-4.039-0.996-1.176-0.683-2.105-1.631-2.788-2.844-0.664-1.233-0.996-2.655-0.996-4.267s0.322-3.025 0.967-4.238c0.664-1.233 1.583-2.181 2.759-2.844 1.195-0.664 2.56-0.996 4.096-0.996 1.479 0 2.797 0.322 3.954 0.967s2.057 1.555 2.702 2.731c0.645 1.157 0.967 2.494 0.967 4.011zM31.983 18.015c-0.019-1.195-0.446-2.152-1.28-2.873s-1.868-1.081-3.1-1.081c-1.119 0-2.076 0.36-2.873 1.081-0.796 0.702-1.271 1.659-1.422 2.873h8.676zM41.802 6.21v21.049h-3.243v-21.049h3.243zM49.302 6.21v21.049h-3.243v-21.049h3.243zM60.357 27.515c-1.479 0-2.816-0.332-4.011-0.996-1.195-0.683-2.133-1.631-2.816-2.844-0.683-1.233-1.024-2.655-1.024-4.267 0-1.593 0.351-3.006 1.052-4.238s1.659-2.181 2.873-2.844c1.214-0.664 2.569-0.996 4.068-0.996s2.854 0.332 4.068 0.996c1.214 0.664 2.171 1.612 2.873 2.844s1.052 2.645 1.052 4.238c0 1.593-0.36 3.006-1.081 4.238s-1.707 2.19-2.958 2.873c-1.233 0.664-2.598 0.996-4.096 0.996zM60.357 24.699c0.834 0 1.612-0.199 2.332-0.597 0.74-0.398 1.337-0.996 1.792-1.792s0.683-1.764 0.683-2.901c0-1.138-0.218-2.095-0.654-2.873-0.436-0.796-1.015-1.394-1.735-1.792s-1.498-0.597-2.332-0.597c-0.834 0-1.612 0.199-2.332 0.597-0.702 0.398-1.261 0.996-1.678 1.792-0.417 0.777-0.626 1.735-0.626 2.873 0 1.688 0.427 2.996 1.28 3.925 0.872 0.91 1.963 1.365 3.271 1.365zM82.33 10.107v5.803h6.827v2.645h-6.827v6.059h7.68v2.645h-10.923v-19.797h10.923v2.645h-7.68zM100.062 24.358l4.437-12.772h3.442l-5.973 15.673h-3.868l-5.945-15.673h3.47l4.437 12.772zM109.312 19.352c0-1.574 0.322-2.968 0.967-4.181 0.664-1.214 1.555-2.152 2.674-2.816 1.138-0.683 2.389-1.024 3.755-1.024 1.233 0 2.304 0.247 3.214 0.74 0.929 0.474 1.669 1.071 2.219 1.792v-2.276h3.271v15.673h-3.271v-2.332c-0.55 0.74-1.299 1.356-2.247 1.849s-2.029 0.74-3.243 0.74c-1.346 0-2.579-0.341-3.698-1.024-1.119-0.702-2.010-1.669-2.674-2.901-0.645-1.252-0.967-2.664-0.967-4.238zM122.14 19.409c0-1.081-0.228-2.020-0.683-2.816-0.436-0.796-1.015-1.403-1.735-1.82s-1.498-0.626-2.333-0.626c-0.834 0-1.612 0.209-2.332 0.626-0.721 0.398-1.308 0.996-1.764 1.792-0.436 0.777-0.654 1.707-0.654 2.788s0.218 2.029 0.654 2.844c0.455 0.815 1.043 1.441 1.764 1.877 0.74 0.417 1.517 0.626 2.332 0.626 0.834 0 1.612-0.209 2.333-0.626s1.299-1.024 1.735-1.82c0.455-0.815 0.683-1.764 0.683-2.844zM137.577 11.33c1.233 0 2.332 0.256 3.3 0.768 0.986 0.512 1.754 1.271 2.304 2.276s0.825 2.219 0.825 3.641v9.244h-3.214v-8.761c0-1.403-0.351-2.475-1.052-3.214-0.702-0.759-1.659-1.138-2.873-1.138s-2.181 0.379-2.901 1.138c-0.702 0.74-1.052 1.811-1.052 3.214v8.761h-3.243v-15.673h3.243v1.792c0.531-0.645 1.204-1.147 2.020-1.508 0.834-0.36 1.716-0.54 2.645-0.54zM154.94 27.515c-1.479 0-2.816-0.332-4.011-0.996-1.195-0.683-2.133-1.631-2.816-2.844-0.683-1.233-1.024-2.655-1.024-4.267 0-1.593 0.351-3.006 1.052-4.238s1.659-2.181 2.873-2.844c1.214-0.664 2.569-0.996 4.068-0.996s2.854 0.332 4.068 0.996c1.214 0.664 2.171 1.612 2.873 2.844s1.052 2.645 1.052 4.238c0 1.593-0.36 3.006-1.081 4.238s-1.707 2.19-2.958 2.873c-1.233 0.664-2.598 0.996-4.096 0.996zM154.94 24.699c0.834 0 1.612-0.199 2.332-0.597 0.74-0.398 1.337-0.996 1.792-1.792s0.683-1.764 0.683-2.901c0-1.138-0.218-2.095-0.654-2.873-0.436-0.796-1.015-1.394-1.735-1.792s-1.498-0.597-2.332-0.597c-0.834 0-1.612 0.199-2.332 0.597-0.702 0.398-1.261 0.996-1.678 1.792-0.417 0.777-0.626 1.735-0.626 2.873 0 1.688 0.427 2.996 1.28 3.925 0.872 0.91 1.963 1.365 3.271 1.365zM205.67 23.362l-3.442 7.851h-2.105l2.020-7.851h3.527z"></path>
<path d="M171.537 29.25h28.444v-28.444h-28.444v28.444z"></path>
</symbol>
<symbol id="icon-logo" viewBox="0 0 32 32">
<path d="M16 30.173c-0.893 0-1.8-0.2-2.507-0.613l-7.333-4.227c-2.987-2.013-3.173-2.32-3.173-5.48v-7.707c0-3.16 0.173-3.467 3.107-5.453l7.387-4.267c1.4-0.813 3.6-0.813 5 0l7.36 4.24c2.987 2.013 3.173 2.32 3.173 5.48v7.693c0 3.16-0.173 3.467-3.107 5.453l-7.387 4.267c-0.72 0.413-1.627 0.613-2.52 0.613zM16 3.826c-0.56 0-1.107 0.107-1.493 0.333l-7.333 4.24c-2.173 1.467-2.173 1.467-2.173 3.747v7.693c0 2.28 0 2.28 2.227 3.787l7.28 4.2c0.787 0.453 2.213 0.453 3 0l7.333-4.24c2.16-1.467 2.16-1.467 2.16-3.747v-7.693c0-2.28 0-2.28-2.227-3.787l-7.28-4.2c-0.387-0.227-0.933-0.333-1.493-0.333z"></path>
<path d="M16 21c-2.76 0-5-2.24-5-5s2.24-5 5-5c2.76 0 5 2.24 5 5s-2.24 5-5 5zM16 13c-1.653 0-3 1.347-3 3s1.347 3 3 3c1.653 0 3-1.347 3-3s-1.347-3-3-3z"></path>
</symbol>
<symbol id="icon-wallet" viewBox="0 0 32 32">
<path fill="none" stroke="#9197b3" style="stroke: var(--color1, #9197b3)" stroke-linejoin="round" stroke-linecap="round" stroke-miterlimit="4" stroke-width="2" d="M14.335 22.481v2.707c0 2.293-2.133 4.147-4.76 4.147s-4.773-1.853-4.773-4.147v-2.707c0 2.293 2.133 3.92 4.773 3.92 2.627 0 4.76-1.64 4.76-3.92z"></path>
<path fill="none" stroke="#9197b3" style="stroke: var(--color1, #9197b3)" stroke-linejoin="round" stroke-linecap="round" stroke-miterlimit="4" stroke-width="2" d="M14.333 18.813c0 0.667-0.187 1.28-0.507 1.813-0.787 1.293-2.4 2.107-4.267 2.107s-3.48-0.827-4.267-2.107c-0.32-0.533-0.507-1.147-0.507-1.813 0-1.147 0.533-2.173 1.387-2.92 0.867-0.76 2.053-1.213 3.373-1.213s2.507 0.467 3.373 1.213c0.88 0.733 1.413 1.773 1.413 2.92z"></path>
<path fill="none" stroke="#9197b3" style="stroke: var(--color1, #9197b3)" stroke-linejoin="round" stroke-linecap="round" stroke-miterlimit="4" stroke-width="2" d="M14.335 18.813v3.667c0 2.293-2.133 3.92-4.76 3.92s-4.773-1.64-4.773-3.92v-3.667c0-2.293 2.133-4.147 4.773-4.147 1.32 0 2.507 0.467 3.373 1.213 0.853 0.747 1.387 1.787 1.387 2.933z"></path>
<path fill="none" stroke="#9197b3" style="stroke: var(--color1, #9197b3)" stroke-linejoin="round" stroke-linecap="round" stroke-miterlimit="4" stroke-width="2" d="M29.333 14.627v2.747c0 0.733-0.587 1.333-1.333 1.36h-2.613c-1.44 0-2.76-1.053-2.88-2.493-0.080-0.84 0.24-1.627 0.8-2.173 0.493-0.507 1.173-0.8 1.92-0.8h2.773c0.747 0.027 1.333 0.627 1.333 1.36z"></path>
<path fill="none" stroke="#9197b3" style="stroke: var(--color1, #9197b3)" stroke-linejoin="round" stroke-linecap="round" stroke-miterlimit="4" stroke-width="2" d="M2.667 14v-2.667c0-3.627 2.187-6.16 5.587-6.587 0.347-0.053 0.707-0.080 1.080-0.080h12c0.347 0 0.68 0.013 1 0.067 3.44 0.4 5.667 2.947 5.667 6.6v1.933h-2.773c-0.747 0-1.427 0.293-1.92 0.8-0.56 0.547-0.88 1.333-0.8 2.173 0.12 1.44 1.44 2.493 2.88 2.493h2.613v1.933c0 4-2.667 6.667-6.667 6.667h-3.333"></path>
</symbol>
<symbol id="icon-search" viewBox="0 0 32 32">
<path fill="none" stroke="#7e7e7e" style="stroke: var(--color2, #7e7e7e)" stroke-linejoin="round" stroke-linecap="round" stroke-miterlimit="4" stroke-width="2.6667" d="M14.667 25.333c5.891 0 10.667-4.776 10.667-10.667s-4.776-10.667-10.667-10.667c-5.891 0-10.667 4.776-10.667 10.667s4.776 10.667 10.667 10.667z"></path>
<path fill="none" stroke="#7e7e7e" style="stroke: var(--color2, #7e7e7e)" stroke-linejoin="round" stroke-linecap="round" stroke-miterlimit="4" stroke-width="2.6667" d="M28 28l-5.8-5.8"></path>
</symbol>
<symbol id="icon-message" viewBox="0 0 32 32">
<path fill="#9197b3" style="fill: var(--color1, #9197b3)" d="M10.667 29.76c-0.373 0-0.76-0.093-1.107-0.28-0.76-0.4-1.227-1.2-1.227-2.053v-1.893c-4.027-0.413-6.667-3.373-6.667-7.613v-8c0-4.587 3.080-7.667 7.667-7.667h13.333c4.587 0 7.667 3.080 7.667 7.667v8c0 4.587-3.080 7.667-7.667 7.667h-5.027l-5.68 3.787c-0.387 0.253-0.84 0.387-1.293 0.387zM9.333 4.24c-3.44 0-5.667 2.227-5.667 5.667v8c0 3.44 2.227 5.667 5.667 5.667 0.547 0 1 0.453 1 1v2.84c0 0.173 0.107 0.253 0.173 0.293s0.2 0.080 0.347-0.013l5.933-3.947c0.16-0.107 0.36-0.173 0.56-0.173h5.333c3.44 0 5.667-2.227 5.667-5.667v-8c0-3.44-2.227-5.667-5.667-5.667h-13.347z"></path>
<path fill="#9197b3" style="fill: var(--color1, #9197b3)" d="M16 16.147c-0.547 0-1-0.453-1-1v-0.28c0-1.547 1.133-2.307 1.56-2.6 0.493-0.333 0.653-0.56 0.653-0.907 0-0.667-0.547-1.213-1.213-1.213s-1.213 0.547-1.213 1.213c0 0.547-0.453 1-1 1s-1-0.453-1-1c0-1.773 1.44-3.213 3.213-3.213s3.213 1.44 3.213 3.213c0 1.52-1.12 2.28-1.533 2.56-0.52 0.347-0.68 0.573-0.68 0.947v0.28c0 0.56-0.453 1-1 1z"></path>
<path fill="#9197b3" style="fill: var(--color1, #9197b3)" d="M16 19.467c-0.56 0-1-0.453-1-1s0.453-1 1-1c0.547 0 1 0.453 1 1s-0.44 1-1 1z"></path>
</symbol>
<symbol id="icon-key" viewBox="0 0 32 32">
<path fill="none" stroke="#9197b3" style="stroke: var(--color1, #9197b3)" stroke-linejoin="round" stroke-linecap="round" stroke-miterlimit="4" stroke-width="2" d="M12 29.333h8c6.667 0 9.333-2.667 9.333-9.333v-8c0-6.667-2.667-9.333-9.333-9.333h-8c-6.667 0-9.333 2.667-9.333 9.333v8c0 6.667 2.667 9.333 9.333 9.333z"></path>
<path fill="none" stroke="#9197b3" style="stroke: var(--color1, #9197b3)" stroke-linejoin="round" stroke-linecap="round" stroke-miterlimit="10" stroke-width="2" d="M21.707 18.147c-1.507 1.507-3.667 1.973-5.573 1.373l-3.453 3.44c-0.24 0.253-0.733 0.413-1.093 0.36l-1.6-0.213c-0.533-0.067-1.013-0.573-1.093-1.093l-0.213-1.6c-0.053-0.347 0.12-0.84 0.36-1.093l3.44-3.44c-0.587-1.907-0.133-4.067 1.373-5.573 2.16-2.16 5.68-2.16 7.853 0 2.16 2.147 2.16 5.667 0 7.84z"></path>
<path fill="none" stroke="#9197b3" style="stroke: var(--color1, #9197b3)" stroke-linejoin="round" stroke-linecap="round" stroke-miterlimit="10" stroke-width="2" d="M13.933 21.707l-1.133-1.147"></path>
<path fill="none" stroke="#9197b3" style="stroke: var(--color1, #9197b3)" stroke-linejoin="round" stroke-linecap="round" stroke-miterlimit="4" stroke-width="2.6667" d="M17.859 14.267h0.012"></path>
</symbol>
<symbol id="icon-discount" viewBox="0 0 32 32">
<path fill="#9197b3" style="fill: var(--color1, #9197b3)" d="M16 30.334c-0.84 0-1.627-0.32-2.213-0.92l-2.027-2.027c-0.16-0.16-0.587-0.333-0.8-0.333h-2.88c-1.733 0-3.133-1.4-3.133-3.133v-2.88c0-0.213-0.173-0.64-0.333-0.8l-2.027-2.027c-0.587-0.587-0.92-1.373-0.92-2.213s0.32-1.627 0.92-2.213l2.027-2.027c0.16-0.16 0.333-0.587 0.333-0.8v-2.88c0-1.733 1.4-3.133 3.133-3.133h2.88c0.213 0 0.64-0.173 0.8-0.333l2.027-2.027c1.173-1.173 3.253-1.173 4.427 0l2.027 2.027c0.16 0.16 0.587 0.333 0.8 0.333h2.88c1.733 0 3.133 1.4 3.133 3.133v2.88c0 0.213 0.173 0.64 0.333 0.8l2.027 2.027c0.587 0.587 0.92 1.373 0.92 2.213s-0.32 1.627-0.92 2.213l-2.027 2.027c-0.16 0.16-0.333 0.587-0.333 0.8v2.88c0 1.733-1.4 3.133-3.133 3.133h-2.88c-0.213 0-0.64 0.173-0.8 0.333l-2.027 2.027c-0.587 0.6-1.373 0.92-2.213 0.92zM6.027 18.827c0.533 0.533 0.92 1.467 0.92 2.213v2.88c0 0.627 0.507 1.133 1.133 1.133h2.88c0.747 0 1.68 0.387 2.213 0.92l2.027 2.027c0.427 0.427 1.173 0.427 1.6 0l2.027-2.027c0.533-0.533 1.467-0.92 2.213-0.92h2.88c0.627 0 1.133-0.507 1.133-1.133v-2.88c0-0.747 0.387-1.68 0.92-2.213l2.027-2.027c0.213-0.213 0.333-0.493 0.333-0.8s-0.12-0.587-0.333-0.8l-2.027-2.027c-0.533-0.533-0.92-1.467-0.92-2.213v-2.88c0-0.627-0.507-1.133-1.133-1.133h-2.88c-0.747 0-1.68-0.387-2.213-0.92l-2.027-2.027c-0.427-0.427-1.173-0.427-1.6 0l-2.027 2.027c-0.533 0.533-1.467 0.92-2.213 0.92h-2.88c-0.627 0-1.133 0.507-1.133 1.133v2.88c0 0.747-0.387 1.68-0.92 2.213l-2.027 2.027c-0.213 0.213-0.333 0.493-0.333 0.8s0.12 0.587 0.333 0.8l2.027 2.027z"></path>
<path fill="#9197b3" style="fill: var(--color1, #9197b3)" d="M20 21.333c-0.747 0-1.347-0.6-1.347-1.333s0.6-1.333 1.333-1.333c0.733 0 1.333 0.6 1.333 1.333s-0.587 1.333-1.32 1.333z"></path>
<path fill="#9197b3" style="fill: var(--color1, #9197b3)" d="M12.013 13.333c-0.747 0-1.347-0.6-1.347-1.333s0.6-1.333 1.333-1.333c0.733 0 1.333 0.6 1.333 1.333s-0.587 1.333-1.32 1.333z"></path>
<path fill="#9197b3" style="fill: var(--color1, #9197b3)" d="M11.999 20.999c-0.253 0-0.507-0.093-0.707-0.293-0.387-0.387-0.387-1.027 0-1.413l8-8c0.387-0.387 1.027-0.387 1.413 0s0.387 1.027 0 1.413l-8 8c-0.2 0.2-0.453 0.293-0.707 0.293z"></path>
</symbol>
<symbol id="icon-d" viewBox="0 0 32 32">
<path fill="#9197b3" style="fill: var(--color1, #9197b3)" d="M20 30.333h-8c-7.24 0-10.333-3.093-10.333-10.333v-8c0-7.24 3.093-10.333 10.333-10.333h8c7.24 0 10.333 3.093 10.333 10.333v8c0 7.24-3.093 10.333-10.333 10.333zM12 3.667c-6.147 0-8.333 2.187-8.333 8.333v8c0 6.147 2.187 8.333 8.333 8.333h8c6.147 0 8.333-2.187 8.333-8.333v-8c0-6.147-2.187-8.333-8.333-8.333h-8z"></path>
<path fill="#9197b3" style="fill: var(--color1, #9197b3)" d="M16.001 17.44c-0.173 0-0.347-0.040-0.507-0.133l-7.067-4.080c-0.48-0.28-0.64-0.893-0.36-1.36 0.28-0.48 0.893-0.64 1.36-0.36l6.56 3.8 6.52-3.773c0.48-0.28 1.093-0.107 1.36 0.36s0.107 1.093-0.36 1.36l-7.013 4.053c-0.147 0.080-0.32 0.133-0.493 0.133z"></path>
<path fill="#9197b3" style="fill: var(--color1, #9197b3)" d="M16 24.693c-0.547 0-1-0.453-1-1v-7.253c0-0.547 0.453-1 1-1s1 0.453 1 1v7.253c0 0.547-0.453 1-1 1z"></path>
<path fill="#9197b3" style="fill: var(--color1, #9197b3)" d="M16 25c-0.773 0-1.533-0.173-2.147-0.507l-4.267-2.373c-1.28-0.707-2.267-2.4-2.267-3.867v-4.52c0-1.453 1-3.147 2.267-3.867l4.267-2.373c1.227-0.68 3.067-0.68 4.293 0l4.267 2.373c1.28 0.707 2.267 2.4 2.267 3.867v4.52c0 1.453-1 3.147-2.267 3.867l-4.267 2.373c-0.613 0.347-1.373 0.507-2.147 0.507zM16 9c-0.44 0-0.867 0.080-1.173 0.253l-4.267 2.373c-0.653 0.36-1.24 1.373-1.24 2.107v4.52c0 0.747 0.587 1.747 1.24 2.107l4.267 2.373c0.613 0.347 1.733 0.347 2.347 0l4.267-2.373c0.653-0.36 1.24-1.373 1.24-2.107v-4.52c0-0.747-0.587-1.747-1.24-2.107l-4.267-2.373c-0.307-0.173-0.733-0.253-1.173-0.253z"></path>
</symbol>
<symbol id="icon-user" viewBox="0 0 32 32">
<path fill="#fff" style="fill: var(--color1, #fff)" d="M20.001 30.333h-8c-1.76 0-3.227-0.173-4.467-0.547-0.453-0.133-0.747-0.573-0.72-1.040 0.333-3.987 4.373-7.12 9.187-7.12s8.84 3.12 9.187 7.12c0.040 0.48-0.253 0.907-0.72 1.040-1.24 0.373-2.707 0.547-4.467 0.547zM8.961 28.080c0.88 0.173 1.88 0.253 3.040 0.253h8c1.16 0 2.16-0.080 3.040-0.253-0.707-2.56-3.627-4.453-7.040-4.453s-6.333 1.893-7.040 4.453z"></path>
<path fill="none" stroke="#fff" style="stroke: var(--color1, #fff)" stroke-linejoin="round" stroke-linecap="round" stroke-miterlimit="4" stroke-width="2" d="M20 2.667h-8c-6.667 0-9.333 2.667-9.333 9.333v8c0 5.040 1.52 7.8 5.147 8.827 0.293-3.467 3.853-6.2 8.187-6.2s7.893 2.733 8.187 6.2c3.627-1.027 5.147-3.787 5.147-8.827v-8c0-6.667-2.667-9.333-9.333-9.333zM16 18.893c-2.64 0-4.773-2.147-4.773-4.787s2.133-4.773 4.773-4.773c2.64 0 4.773 2.133 4.773 4.773s-2.133 4.787-4.773 4.787z"></path>
<path fill="#fff" style="fill: var(--color1, #fff)" d="M16 19.893c-3.187 0-5.773-2.6-5.773-5.787s2.587-5.773 5.773-5.773c3.187 0 5.773 2.587 5.773 5.773s-2.587 5.787-5.773 5.787zM16 10.333c-2.080 0-3.773 1.693-3.773 3.773 0 2.093 1.693 3.787 3.773 3.787s3.773-1.693 3.773-3.787c0-2.080-1.693-3.773-3.773-3.773z"></path>
</symbol>

<symbol id="icon-bracket" viewBox="0 0 19 32">
<path fill="none"  stroke-linejoin="round" stroke-linecap="round" stroke-miterlimit="4" stroke-width="6.4" d="M3.2 28.8l12.8-12.8-12.8-12.8"></path>
</symbol>
<symbol id="icon-Line" viewBox="0 0 30976 32">
<path fill="none" stroke="#EEEEEE" style="stroke: var(--color2, #EEEEEE)" stroke-linejoin="miter" stroke-linecap="butt" stroke-miterlimit="4" stroke-width="32" d="M0 16l30976 0.003"></path>
</symbol>
</defs>
</svg>

